TITLE "A Rose In A Garden Of Weeds: A Preamble Through The History Of Pugwash..."
PERFORMER "Pugwash"
REM DATE "2014"
REM DISCID 080E4B11
FILE "A Rose In A Garden Of Weeds： A Preamble Through The History Of Pugwash....flac" WAVE
  TRACK 01 AUDIO
    TITLE "Take Me Away"
    ISRC QMWHB1400795
    INDEX 01 00:00:00
  TRACK 02 AUDIO
    TITLE "Monorail"
    ISRC QMWHB1400796
    INDEX 01 03:34:63
  TRACK 03 AUDIO
    TITLE "Keep Movin' On"
    ISRC QMWHB1400797
    INDEX 01 06:05:07
  TRACK 04 AUDIO
    TITLE "Finer Things in Life"
    ISRC QMWHB1400798
    INDEX 01 09:40:25
  TRACK 05 AUDIO
    TITLE "Anyone Who Asks"
    ISRC QMWHB1400799
    INDEX 01 12:42:54
  TRACK 06 AUDIO
    TITLE "Shine On Norvell Jefferson"
    ISRC QMWHB1400800
    INDEX 01 16:31:16
  TRACK 07 AUDIO
    TITLE "Two Wrongs"
    ISRC QMWHB1400801
    INDEX 01 19:23:47
  TRACK 08 AUDIO
    TITLE "A Rose In A Garden Of Weeds"
    ISRC QMWHB1400802
    INDEX 01 23:03:00
  TRACK 09 AUDIO
    TITLE "It's Nice To Be Nice"
    ISRC QMWHB1400803
    INDEX 01 26:23:30
  TRACK 10 AUDIO
    TITLE "At The Sea"
    ISRC QMWHB1400804
    INDEX 01 29:50:36
  TRACK 11 AUDIO
    TITLE "Fall Down"
    ISRC QMWHB1400805
    INDEX 01 33:06:67
  TRACK 12 AUDIO
    TITLE "Answers On A Postcard"
    ISRC QMWHB1400806
    INDEX 01 37:16:22
  TRACK 13 AUDIO
    TITLE "Heal Me"
    ISRC QMWHB1400807
    INDEX 01 40:11:32
  TRACK 14 AUDIO
    TITLE "Here"
    ISRC QMWHB1400808
    INDEX 01 44:00:69
  TRACK 15 AUDIO
    TITLE "Apples"
    ISRC QMWHB1400809
    INDEX 01 47:14:61
  TRACK 16 AUDIO
    TITLE "Anchor"
    ISRC QMWHB1400810
    INDEX 01 51:04:22
  TRACK 17 AUDIO
    TITLE "Be My Friend Awhile"
    ISRC QMWHB1400811
    INDEX 01 56:47:29
